Coordinates
version=1
nRows=9
nColumns=24
inDegrees=yes

Units are S.I. units (second, meters, Newtons, ...)
Angles are in degrees.

endheader
time	pelvis_tilt	pelvis_list	pelvis_rotation	pelvis_tx	pelvis_ty	pelvis_tz	hip_flexion_r	hip_adduction_r	hip_rotation_r	knee_angle_r	ankle_angle_r	subtalar_angle_r	mtp_angle_r	hip_flexion_l	hip_adduction_l	hip_rotation_l	knee_angle_l	ankle_angle_l	subtalar_angle_l	mtp_angle_l	lumbar_extension	lumbar_bending	lumbar_rotation
      2.86500000	     -8.95784704	      7.35636861	    358.23570985	      0.64774808	      1.37101859	     -1.04468523	      8.90657229	     -7.03866885	      2.34364383	    -41.12518761	     -4.00088448	     -3.65366623	     23.94566078	     25.03121665	     10.25880534	      0.46056260	     -9.73558223	    -11.57080183	     -8.97746483	     23.90816587	     -7.84233257	     -3.09964416	      4.96882966
      2.87000000	     -8.81475754	      7.50802008	    358.23957635	      0.65294060	      1.37147356	     -1.04550618	      9.57070695	     -7.32836173	      2.36886045	    -42.65209076	     -5.63202614	     -3.77494619	     25.17633014	     24.68326946	     10.55254032	      0.82811473	     -9.96422438	    -11.40138465	     -9.42916556	     23.07993736	     -7.94576689	     -3.25042862	      4.91348161
      2.87500000	     -8.76668813	      7.68140499	    358.20203471	      0.65804984	      1.37173594	     -1.04615091	     10.37192826	     -7.61187385	      2.50584006	    -44.18890474	     -6.90705994	     -3.57177181	     26.57282264	     24.41339130	     10.81288031	      0.92835701	    -10.12239774	    -11.17446430	     -9.54463253	     22.53618842	     -7.92880419	     -3.46414547	      4.93385234
      2.88000000	     -8.61498945	      7.83039703	    358.19628210	      0.66306529	      1.37208645	     -1.04689746	     11.00756942	     -7.89823678	      2.57024805	    -45.63373859	     -7.31935562	     -3.01879932	     27.92915567	     24.00651076	     11.07062300	      0.94948168	    -10.22348450	    -10.93878906	     -9.59751112	     21.98887170	     -8.03251621	     -3.62446204	      4.83922360
      2.88500000	     -8.44521191	      8.00422948	    358.19055472	      0.66823276	      1.37236914	     -1.04762609	     11.61830318	     -8.26188901	      2.55837498	    -47.07604133	     -6.66540152	     -1.88255246	     28.64699139	     23.51022665	     11.35543615	      0.93796029	    -10.20344364	    -10.68120517	     -9.71190695	     21.55764965	     -8.11998196	     -3.79734052	      4.67193367
      2.89000000	     -8.26275691	      8.06048596	    358.21702311	      0.67324368	      1.37283006	     -1.04838035	     12.08912072	     -8.42662691	      2.66102699	    -48.25507048	     -5.89283977	     -1.11538208	     28.66456935	     23.06076151	     11.51581863	      0.69629388	    -10.33417313	     -9.92224080	     -8.77272596	     20.61208752	     -8.25896584	     -3.84004364	      4.50531470
      2.89500000	     -8.12298305	      8.10997714	    358.22463740	      0.67828352	      1.37320353	     -1.04921436	     12.61386170	     -8.60997588	      2.71241082	    -49.37814188	     -5.07330523	     -0.18727152	     28.45501908	     22.61545170	     11.66380234	      0.49411629	    -10.34862592	     -9.64502326	     -8.48315289	     20.49153789	     -8.33469194	     -3.86654685	      4.37048362
      2.90000000	     -7.94696521	      8.09356144	    358.15534913	      0.68327534	      1.37381630	     -1.04992067	     13.09748829	     -8.64185958	      2.91848543	    -50.34834151	     -4.59499854	      0.44352234	     28.71952568	     22.08681711	     11.70543773	      0.26000616	    -10.26308063	     -9.48821062	     -8.35930317	     20.52231794	     -8.46560894	     -3.85215745	      4.34158999
      2.90500000	     -7.80293274	      7.93475670	    358.12635879	      0.68816844	      1.37453516	     -1.05059698	     13.54153092	     -8.47094438	      3.10763835	    -51.14260318	     -4.27949644	      0.95952672	     28.90894684	     21.58609249	     11.59457820	      0.09025569	    -10.19080113	     -9.21040238	     -8.06136666	     20.57516801	     -8.56628937	     -3.69202315	      4.31398943
